<?xml version="1.0" encoding="UTF-8" standalone="no"?>
<!-- Created with Inkscape (http://www.inkscape.org/) -->

<svg
   xmlns:dc="http://purl.org/dc/elements/1.1/"
   xmlns:cc="http://creativecommons.org/ns#"
   xmlns:rdf="http://www.w3.org/1999/02/22-rdf-syntax-ns#"
   xmlns:svg="http://www.w3.org/2000/svg"
   xmlns="http://www.w3.org/2000/svg"
   xmlns:sodipodi="http://sodipodi.sourceforge.net/DTD/sodipodi-0.dtd"
   xmlns:inkscape="http://www.inkscape.org/namespaces/inkscape"
   width="179.20857mm"
   height="212.36176mm"
   viewBox="0 0 179.20857 212.36176"
   version="1.1"
   id="svg4126"
   inkscape:version="0.92.3 (2405546, 2018-03-11)"
   sodipodi:docname="jt_logo001.svg">
  <title
     id="title4187">Julian Toledo - Logo 001</title>
  <defs
     id="defs4120" />
  <sodipodi:namedview
     id="base"
     pagecolor="#ffffff"
     bordercolor="#666666"
     borderopacity="1.0"
     inkscape:pageopacity="0.0"
     inkscape:pageshadow="2"
     inkscape:zoom="0.35"
     inkscape:cx="340.37625"
     inkscape:cy="408.45643"
     inkscape:document-units="mm"
     inkscape:current-layer="layer1"
     showgrid="false"
     inkscape:window-width="1366"
     inkscape:window-height="705"
     inkscape:window-x="-8"
     inkscape:window-y="-8"
     inkscape:window-maximized="1" />
  <metadata
     id="metadata4123">
    <rdf:RDF>
      <cc:Work
         rdf:about="">
        <dc:format>image/svg+xml</dc:format>
        <dc:type
           rdf:resource="http://purl.org/dc/dcmitype/StillImage" />
        <dc:title>Julian Toledo - Logo 001</dc:title>
      </cc:Work>
    </rdf:RDF>
  </metadata>
  <g
     inkscape:label="Capa 1"
     inkscape:groupmode="layer"
     id="layer1"
     transform="translate(-15.775451,-44.542339)">
    <path
       style="fill:#550000;stroke-width:0.7267853"
       d="m 34.63717,256.27917 c 0,-0.52776 2.29621,-1.99881 5.10268,-3.26903 13.08327,-5.9214 28.47117,-17.41222 36.48289,-27.24336 2.07799,-2.54991 5.2646,-7.30889 7.08134,-10.5755 3.3217,-5.97267 6.99047,-15.1682 6.30462,-15.80214 -0.20261,-0.18729 -4.40477,-0.0132 -9.33811,0.38679 -4.93335,0.40002 -9.56504,0.73056 -10.29264,0.73452 -2.38696,0.0129 -1.38383,-1.78878 1.5119,-2.71562 8.08754,-2.5886 14.10496,-8.37302 16.36091,-15.72741 2.50716,-8.17335 2.72689,-13.63976 2.72689,-67.83844 0,-47.91407 -0.13821,-54.475202 -1.18702,-56.34988 l -1.18701,-2.121721 -23.19245,0.290019 c -25.3623,0.317153 -27.98972,0.674607 -33.8626,4.606944 -3.59735,2.408695 -7.29268,8.526694 -10.1869,16.865462 -1.64366,4.735688 -2.39175,6.004141 -3.64566,6.181609 -1.95424,0.276583 -1.99213,-1.014944 -0.43705,-14.896897 0.60272,-5.380324 1.10292,-13.040356 1.11156,-17.022293 l 0.0157,-7.239884 2.45685,0.420292 c 3.12608,0.534779 34.02816,1.809869 44.16021,1.82215 4.22704,0.0051 7.79891,-0.267373 7.9375,-0.605549 0.25982,-0.633974 25.07368,0.177419 30.27737,0.990046 l 2.85854,0.446398 -0.012,60.903954 c -0.014,71.34211 -0.55717,81.10564 -5.39003,96.88925 -2.86104,9.34384 -6.27745,15.90285 -11.8824,22.81241 -10.40113,12.82212 -24.77747,22.07354 -40.92393,26.33522 -9.20008,2.42826 -12.85119,2.91767 -12.85119,1.72266 z"
       id="path4156"
       inkscape:connector-curvature="0" />
    <path
       style="fill:#0b1728;stroke-width:0.7267853"
       d="m 106.00196,210.64945 c 3.73707,-8.61932 3.50134,-2.76599 3.48098,-86.43829 l -0.0188,-77.417064 6.24277,-0.05468 c 3.43352,-0.03008 11.68562,-0.300029 18.338,-0.599897 6.65239,-0.299866 12.41841,-0.275259 12.8134,0.05468 0.39498,0.329944 3.96686,0.597048 7.9375,0.593565 9.11873,-0.0079 35.25158,-1.243142 38.06687,-1.799193 l 2.12135,-0.418988 -0.44981,15.960557 c -0.58354,20.70589 -0.87028,23.29736 -2.57781,23.29736 -1.06906,0 -1.49078,-1.036063 -2.20426,-5.415263 -1.27814,-7.844912 -5.421,-15.19736 -10.0472,-17.83106 -6.33025,-3.603814 -9.95627,-4.136146 -30.73553,-4.512245 l -19.09336,-0.345589 -1.45446,3.046871 c -3.01379,6.313419 -3.16923,9.925182 -2.8676,66.632526 0.30946,58.17923 0.46561,60.66574 4.09375,65.19116 2.36761,2.95314 7.30118,6.13995 11.11813,7.18166 2.02105,0.55159 3.48439,1.36728 3.48439,1.94227 0,0.81791 -1.22303,0.9101 -6.99256,0.52709 -12.23522,-0.81223 -19.07475,1.20617 -27.36458,8.07555 -2.66086,2.20491 -4.24963,3.15584 -3.89112,2.32898 z"
       id="path4160"
       inkscape:connector-curvature="0" />
  </g>
</svg>
